<mxfile host="Electron" agent="Mozilla/5.0 (Windows NT 10.0; Win64; x64) AppleWebKit/537.36 (KHTML, like Gecko) draw.io/24.7.17 Chrome/128.0.6613.36 Electron/32.0.1 Safari/537.36" version="24.7.17">
  <diagram id="C5RBs43oDa-KdzZeNtuy" name="Page-1">
    <mxGraphModel dx="1889" dy="1788" grid="1" gridSize="10" guides="1" tooltips="1" connect="1" arrows="1" fold="1" page="1" pageScale="1" pageWidth="827" pageHeight="1169" math="0" shadow="0">
      <root>
        <mxCell id="WIyWlLk6GJQsqaUBKTNV-0" />
        <mxCell id="WIyWlLk6GJQsqaUBKTNV-1" parent="WIyWlLk6GJQsqaUBKTNV-0" />
        <mxCell id="S5shMIWd5w4mXLnRkJm3-11" style="edgeStyle=orthogonalEdgeStyle;rounded=0;orthogonalLoop=1;jettySize=auto;html=1;exitX=0.5;exitY=1;exitDx=0;exitDy=0;entryX=0.5;entryY=0;entryDx=0;entryDy=0;" parent="WIyWlLk6GJQsqaUBKTNV-1" source="WIyWlLk6GJQsqaUBKTNV-3" target="S5shMIWd5w4mXLnRkJm3-0" edge="1">
          <mxGeometry relative="1" as="geometry" />
        </mxCell>
        <mxCell id="WIyWlLk6GJQsqaUBKTNV-3" value="单点导航" style="rounded=1;whiteSpace=wrap;html=1;fontSize=12;glass=0;strokeWidth=1;shadow=0;" parent="WIyWlLk6GJQsqaUBKTNV-1" vertex="1">
          <mxGeometry x="-391" y="-780" width="120" height="40" as="geometry" />
        </mxCell>
        <mxCell id="S5shMIWd5w4mXLnRkJm3-2" value="" style="edgeStyle=orthogonalEdgeStyle;rounded=0;orthogonalLoop=1;jettySize=auto;html=1;" parent="WIyWlLk6GJQsqaUBKTNV-1" source="S5shMIWd5w4mXLnRkJm3-0" target="S5shMIWd5w4mXLnRkJm3-1" edge="1">
          <mxGeometry relative="1" as="geometry" />
        </mxCell>
        <mxCell id="S5shMIWd5w4mXLnRkJm3-0" value="设置目标点或航点&lt;div&gt;目标点：坐标和朝向&lt;/div&gt;&lt;div&gt;航点：航点序号或名称&lt;/div&gt;" style="rounded=0;whiteSpace=wrap;html=1;" parent="WIyWlLk6GJQsqaUBKTNV-1" vertex="1">
          <mxGeometry x="-404" y="-680" width="146" height="60" as="geometry" />
        </mxCell>
        <mxCell id="S5shMIWd5w4mXLnRkJm3-4" value="" style="edgeStyle=orthogonalEdgeStyle;rounded=0;orthogonalLoop=1;jettySize=auto;html=1;entryX=0.5;entryY=0;entryDx=0;entryDy=0;" parent="WIyWlLk6GJQsqaUBKTNV-1" source="S5shMIWd5w4mXLnRkJm3-1" target="S5shMIWd5w4mXLnRkJm3-3" edge="1">
          <mxGeometry relative="1" as="geometry">
            <Array as="points">
              <mxPoint x="-331" y="-410" />
            </Array>
          </mxGeometry>
        </mxCell>
        <mxCell id="S5shMIWd5w4mXLnRkJm3-1" value="开始单点导航，前往目标点或航点" style="whiteSpace=wrap;html=1;rounded=0;" parent="WIyWlLk6GJQsqaUBKTNV-1" vertex="1">
          <mxGeometry x="-391" y="-560" width="120" height="60" as="geometry" />
        </mxCell>
        <mxCell id="S5shMIWd5w4mXLnRkJm3-6" value="" style="edgeStyle=orthogonalEdgeStyle;rounded=0;orthogonalLoop=1;jettySize=auto;html=1;" parent="WIyWlLk6GJQsqaUBKTNV-1" source="S5shMIWd5w4mXLnRkJm3-3" target="S5shMIWd5w4mXLnRkJm3-5" edge="1">
          <mxGeometry relative="1" as="geometry" />
        </mxCell>
        <mxCell id="S5shMIWd5w4mXLnRkJm3-9" value="是" style="edgeLabel;html=1;align=center;verticalAlign=middle;resizable=0;points=[];" parent="S5shMIWd5w4mXLnRkJm3-6" vertex="1" connectable="0">
          <mxGeometry x="-0.0222" y="3" relative="1" as="geometry">
            <mxPoint x="-3" as="offset" />
          </mxGeometry>
        </mxCell>
        <mxCell id="S5shMIWd5w4mXLnRkJm3-8" value="" style="edgeStyle=orthogonalEdgeStyle;rounded=0;orthogonalLoop=1;jettySize=auto;html=1;entryX=0;entryY=0.5;entryDx=0;entryDy=0;" parent="WIyWlLk6GJQsqaUBKTNV-1" source="S5shMIWd5w4mXLnRkJm3-3" target="mSAMPX0G9KFhwOb52APY-0" edge="1">
          <mxGeometry relative="1" as="geometry">
            <mxPoint x="126" y="-360" as="targetPoint" />
          </mxGeometry>
        </mxCell>
        <mxCell id="S5shMIWd5w4mXLnRkJm3-10" value="否" style="edgeLabel;html=1;align=center;verticalAlign=middle;resizable=0;points=[];" parent="S5shMIWd5w4mXLnRkJm3-8" vertex="1" connectable="0">
          <mxGeometry x="0.0333" y="1" relative="1" as="geometry">
            <mxPoint x="-1" y="-1" as="offset" />
          </mxGeometry>
        </mxCell>
        <mxCell id="S5shMIWd5w4mXLnRkJm3-3" value="是否接收到到达目标点的信息" style="rhombus;whiteSpace=wrap;html=1;rounded=0;" parent="WIyWlLk6GJQsqaUBKTNV-1" vertex="1">
          <mxGeometry x="-430" y="-410" width="198" height="100" as="geometry" />
        </mxCell>
        <mxCell id="S5shMIWd5w4mXLnRkJm3-5" value="单点导航结束" style="whiteSpace=wrap;html=1;rounded=0;" parent="WIyWlLk6GJQsqaUBKTNV-1" vertex="1">
          <mxGeometry x="-391" y="-160" width="120" height="60" as="geometry" />
        </mxCell>
        <mxCell id="S5shMIWd5w4mXLnRkJm3-13" style="edgeStyle=orthogonalEdgeStyle;rounded=0;orthogonalLoop=1;jettySize=auto;html=1;entryX=0.5;entryY=0;entryDx=0;entryDy=0;exitX=0.5;exitY=0;exitDx=0;exitDy=0;" parent="WIyWlLk6GJQsqaUBKTNV-1" source="mSAMPX0G9KFhwOb52APY-1" target="S5shMIWd5w4mXLnRkJm3-3" edge="1">
          <mxGeometry relative="1" as="geometry">
            <Array as="points">
              <mxPoint x="178" y="-450" />
              <mxPoint x="-331" y="-450" />
            </Array>
            <mxPoint x="-80" y="-450" as="sourcePoint" />
          </mxGeometry>
        </mxCell>
        <mxCell id="S5shMIWd5w4mXLnRkJm3-53" style="edgeStyle=orthogonalEdgeStyle;rounded=0;orthogonalLoop=1;jettySize=auto;html=1;exitX=0.5;exitY=1;exitDx=0;exitDy=0;entryX=0.5;entryY=0;entryDx=0;entryDy=0;" parent="WIyWlLk6GJQsqaUBKTNV-1" source="S5shMIWd5w4mXLnRkJm3-15" target="S5shMIWd5w4mXLnRkJm3-17" edge="1">
          <mxGeometry relative="1" as="geometry" />
        </mxCell>
        <mxCell id="S5shMIWd5w4mXLnRkJm3-15" value="序列导航" style="rounded=1;whiteSpace=wrap;html=1;fontSize=12;glass=0;strokeWidth=1;shadow=0;" parent="WIyWlLk6GJQsqaUBKTNV-1" vertex="1">
          <mxGeometry x="683" y="-780" width="120" height="40" as="geometry" />
        </mxCell>
        <mxCell id="S5shMIWd5w4mXLnRkJm3-54" style="edgeStyle=orthogonalEdgeStyle;rounded=0;orthogonalLoop=1;jettySize=auto;html=1;exitX=0.5;exitY=1;exitDx=0;exitDy=0;" parent="WIyWlLk6GJQsqaUBKTNV-1" source="S5shMIWd5w4mXLnRkJm3-17" target="S5shMIWd5w4mXLnRkJm3-44" edge="1">
          <mxGeometry relative="1" as="geometry" />
        </mxCell>
        <mxCell id="S5shMIWd5w4mXLnRkJm3-17" value="选择序列导航的起始点" style="rounded=0;whiteSpace=wrap;html=1;" parent="WIyWlLk6GJQsqaUBKTNV-1" vertex="1">
          <mxGeometry x="670" y="-680" width="146" height="60" as="geometry" />
        </mxCell>
        <mxCell id="S5shMIWd5w4mXLnRkJm3-18" value="" style="edgeStyle=orthogonalEdgeStyle;rounded=0;orthogonalLoop=1;jettySize=auto;html=1;entryX=0.5;entryY=0;entryDx=0;entryDy=0;exitX=0.5;exitY=1;exitDx=0;exitDy=0;" parent="WIyWlLk6GJQsqaUBKTNV-1" source="S5shMIWd5w4mXLnRkJm3-19" target="S5shMIWd5w4mXLnRkJm3-24" edge="1">
          <mxGeometry relative="1" as="geometry">
            <Array as="points">
              <mxPoint x="743" y="30" />
            </Array>
          </mxGeometry>
        </mxCell>
        <mxCell id="S5shMIWd5w4mXLnRkJm3-19" value="开始序列导航，前往第一个航点" style="whiteSpace=wrap;html=1;rounded=0;" parent="WIyWlLk6GJQsqaUBKTNV-1" vertex="1">
          <mxGeometry x="683" y="-230" width="120" height="60" as="geometry" />
        </mxCell>
        <mxCell id="S5shMIWd5w4mXLnRkJm3-20" value="" style="edgeStyle=orthogonalEdgeStyle;rounded=0;orthogonalLoop=1;jettySize=auto;html=1;entryX=0.5;entryY=0;entryDx=0;entryDy=0;" parent="WIyWlLk6GJQsqaUBKTNV-1" source="S5shMIWd5w4mXLnRkJm3-24" target="S5shMIWd5w4mXLnRkJm3-33" edge="1">
          <mxGeometry relative="1" as="geometry">
            <mxPoint x="729" y="270" as="targetPoint" />
          </mxGeometry>
        </mxCell>
        <mxCell id="S5shMIWd5w4mXLnRkJm3-21" value="是" style="edgeLabel;html=1;align=center;verticalAlign=middle;resizable=0;points=[];" parent="S5shMIWd5w4mXLnRkJm3-20" vertex="1" connectable="0">
          <mxGeometry x="-0.0222" y="3" relative="1" as="geometry">
            <mxPoint x="-3" y="-4" as="offset" />
          </mxGeometry>
        </mxCell>
        <mxCell id="S5shMIWd5w4mXLnRkJm3-22" value="" style="edgeStyle=orthogonalEdgeStyle;rounded=0;orthogonalLoop=1;jettySize=auto;html=1;entryX=0;entryY=0.5;entryDx=0;entryDy=0;" parent="WIyWlLk6GJQsqaUBKTNV-1" source="S5shMIWd5w4mXLnRkJm3-24" target="S5shMIWd5w4mXLnRkJm3-61" edge="1">
          <mxGeometry relative="1" as="geometry">
            <mxPoint x="990" as="targetPoint" />
          </mxGeometry>
        </mxCell>
        <mxCell id="S5shMIWd5w4mXLnRkJm3-23" value="否" style="edgeLabel;html=1;align=center;verticalAlign=middle;resizable=0;points=[];" parent="S5shMIWd5w4mXLnRkJm3-22" vertex="1" connectable="0">
          <mxGeometry x="0.0333" y="1" relative="1" as="geometry">
            <mxPoint y="1" as="offset" />
          </mxGeometry>
        </mxCell>
        <mxCell id="S5shMIWd5w4mXLnRkJm3-24" value="是否接收到到达目标点的信息" style="rhombus;whiteSpace=wrap;html=1;rounded=0;" parent="WIyWlLk6GJQsqaUBKTNV-1" vertex="1">
          <mxGeometry x="618.5" y="-50" width="249" height="100" as="geometry" />
        </mxCell>
        <mxCell id="S5shMIWd5w4mXLnRkJm3-26" style="edgeStyle=orthogonalEdgeStyle;rounded=0;orthogonalLoop=1;jettySize=auto;html=1;entryX=0.5;entryY=0;entryDx=0;entryDy=0;exitX=0.5;exitY=0;exitDx=0;exitDy=0;" parent="WIyWlLk6GJQsqaUBKTNV-1" source="S5shMIWd5w4mXLnRkJm3-62" target="S5shMIWd5w4mXLnRkJm3-24" edge="1">
          <mxGeometry relative="1" as="geometry">
            <Array as="points">
              <mxPoint x="1297" y="-130" />
              <mxPoint x="743" y="-130" />
            </Array>
            <mxPoint x="1260" y="-130" as="sourcePoint" />
          </mxGeometry>
        </mxCell>
        <mxCell id="S5shMIWd5w4mXLnRkJm3-50" value="" style="edgeStyle=orthogonalEdgeStyle;rounded=0;orthogonalLoop=1;jettySize=auto;html=1;" parent="WIyWlLk6GJQsqaUBKTNV-1" source="S5shMIWd5w4mXLnRkJm3-30" target="S5shMIWd5w4mXLnRkJm3-41" edge="1">
          <mxGeometry relative="1" as="geometry" />
        </mxCell>
        <mxCell id="S5shMIWd5w4mXLnRkJm3-30" value="初始化航点序列：&lt;div&gt;读取航点列表&lt;/div&gt;&lt;div&gt;设置航点序号或名称与列表序号的映射关系&lt;/div&gt;" style="rounded=0;whiteSpace=wrap;html=1;" parent="WIyWlLk6GJQsqaUBKTNV-1" vertex="1">
          <mxGeometry x="45" y="-1010" width="250" height="60" as="geometry" />
        </mxCell>
        <mxCell id="S5shMIWd5w4mXLnRkJm3-115" style="edgeStyle=orthogonalEdgeStyle;rounded=0;orthogonalLoop=1;jettySize=auto;html=1;exitX=0;exitY=0.5;exitDx=0;exitDy=0;entryX=1;entryY=0.5;entryDx=0;entryDy=0;" parent="WIyWlLk6GJQsqaUBKTNV-1" source="S5shMIWd5w4mXLnRkJm3-33" target="S5shMIWd5w4mXLnRkJm3-37" edge="1">
          <mxGeometry relative="1" as="geometry" />
        </mxCell>
        <mxCell id="S5shMIWd5w4mXLnRkJm3-116" value="否" style="edgeLabel;html=1;align=center;verticalAlign=middle;resizable=0;points=[];" parent="S5shMIWd5w4mXLnRkJm3-115" vertex="1" connectable="0">
          <mxGeometry x="-0.1585" y="2" relative="1" as="geometry">
            <mxPoint x="-9" y="-2" as="offset" />
          </mxGeometry>
        </mxCell>
        <mxCell id="S5shMIWd5w4mXLnRkJm3-125" style="edgeStyle=orthogonalEdgeStyle;rounded=0;orthogonalLoop=1;jettySize=auto;html=1;exitX=0.5;exitY=1;exitDx=0;exitDy=0;" parent="WIyWlLk6GJQsqaUBKTNV-1" source="S5shMIWd5w4mXLnRkJm3-33" target="S5shMIWd5w4mXLnRkJm3-113" edge="1">
          <mxGeometry relative="1" as="geometry" />
        </mxCell>
        <mxCell id="S5shMIWd5w4mXLnRkJm3-126" value="是" style="edgeLabel;html=1;align=center;verticalAlign=middle;resizable=0;points=[];" parent="S5shMIWd5w4mXLnRkJm3-125" vertex="1" connectable="0">
          <mxGeometry x="-0.2251" y="1" relative="1" as="geometry">
            <mxPoint x="-1" y="9" as="offset" />
          </mxGeometry>
        </mxCell>
        <mxCell id="S5shMIWd5w4mXLnRkJm3-33" value="当前航点是否为航点序列中最后的点" style="rhombus;whiteSpace=wrap;html=1;" parent="WIyWlLk6GJQsqaUBKTNV-1" vertex="1">
          <mxGeometry x="616.38" y="140" width="253.25" height="110" as="geometry" />
        </mxCell>
        <mxCell id="S5shMIWd5w4mXLnRkJm3-34" value="序列导航结束" style="whiteSpace=wrap;html=1;" parent="WIyWlLk6GJQsqaUBKTNV-1" vertex="1">
          <mxGeometry x="683.01" y="680" width="120" height="60" as="geometry" />
        </mxCell>
        <mxCell id="S5shMIWd5w4mXLnRkJm3-39" style="edgeStyle=orthogonalEdgeStyle;rounded=0;orthogonalLoop=1;jettySize=auto;html=1;exitX=0.5;exitY=0;exitDx=0;exitDy=0;entryX=0;entryY=0.5;entryDx=0;entryDy=0;" parent="WIyWlLk6GJQsqaUBKTNV-1" source="S5shMIWd5w4mXLnRkJm3-37" target="S5shMIWd5w4mXLnRkJm3-24" edge="1">
          <mxGeometry relative="1" as="geometry" />
        </mxCell>
        <mxCell id="S5shMIWd5w4mXLnRkJm3-37" value="继续去往序列中的下一个航点" style="whiteSpace=wrap;html=1;" parent="WIyWlLk6GJQsqaUBKTNV-1" vertex="1">
          <mxGeometry x="380" y="165" width="100" height="60" as="geometry" />
        </mxCell>
        <mxCell id="S5shMIWd5w4mXLnRkJm3-51" style="edgeStyle=orthogonalEdgeStyle;rounded=0;orthogonalLoop=1;jettySize=auto;html=1;exitX=0;exitY=0.5;exitDx=0;exitDy=0;" parent="WIyWlLk6GJQsqaUBKTNV-1" source="S5shMIWd5w4mXLnRkJm3-41" target="WIyWlLk6GJQsqaUBKTNV-3" edge="1">
          <mxGeometry relative="1" as="geometry" />
        </mxCell>
        <mxCell id="S5shMIWd5w4mXLnRkJm3-52" style="edgeStyle=orthogonalEdgeStyle;rounded=0;orthogonalLoop=1;jettySize=auto;html=1;exitX=1;exitY=0.5;exitDx=0;exitDy=0;entryX=0.5;entryY=0;entryDx=0;entryDy=0;" parent="WIyWlLk6GJQsqaUBKTNV-1" source="S5shMIWd5w4mXLnRkJm3-41" target="S5shMIWd5w4mXLnRkJm3-15" edge="1">
          <mxGeometry relative="1" as="geometry" />
        </mxCell>
        <mxCell id="S5shMIWd5w4mXLnRkJm3-41" value="设置导航模式：&lt;div&gt;单点导航&lt;/div&gt;&lt;div&gt;序列导航&lt;/div&gt;" style="whiteSpace=wrap;html=1;rounded=0;" parent="WIyWlLk6GJQsqaUBKTNV-1" vertex="1">
          <mxGeometry x="110" y="-910" width="120" height="60" as="geometry" />
        </mxCell>
        <mxCell id="S5shMIWd5w4mXLnRkJm3-49" value="" style="edgeStyle=orthogonalEdgeStyle;rounded=0;orthogonalLoop=1;jettySize=auto;html=1;" parent="WIyWlLk6GJQsqaUBKTNV-1" source="S5shMIWd5w4mXLnRkJm3-43" target="S5shMIWd5w4mXLnRkJm3-30" edge="1">
          <mxGeometry relative="1" as="geometry" />
        </mxCell>
        <mxCell id="S5shMIWd5w4mXLnRkJm3-43" value="自动导航控制" style="rounded=1;whiteSpace=wrap;html=1;" parent="WIyWlLk6GJQsqaUBKTNV-1" vertex="1">
          <mxGeometry x="110" y="-1110" width="120" height="60" as="geometry" />
        </mxCell>
        <mxCell id="S5shMIWd5w4mXLnRkJm3-55" style="edgeStyle=orthogonalEdgeStyle;rounded=0;orthogonalLoop=1;jettySize=auto;html=1;exitX=0;exitY=0.5;exitDx=0;exitDy=0;entryX=0.5;entryY=0;entryDx=0;entryDy=0;" parent="WIyWlLk6GJQsqaUBKTNV-1" source="S5shMIWd5w4mXLnRkJm3-44" target="S5shMIWd5w4mXLnRkJm3-46" edge="1">
          <mxGeometry relative="1" as="geometry" />
        </mxCell>
        <mxCell id="S5shMIWd5w4mXLnRkJm3-56" style="edgeStyle=orthogonalEdgeStyle;rounded=0;orthogonalLoop=1;jettySize=auto;html=1;exitX=1;exitY=0.5;exitDx=0;exitDy=0;entryX=0.5;entryY=0;entryDx=0;entryDy=0;" parent="WIyWlLk6GJQsqaUBKTNV-1" source="S5shMIWd5w4mXLnRkJm3-44" target="S5shMIWd5w4mXLnRkJm3-47" edge="1">
          <mxGeometry relative="1" as="geometry" />
        </mxCell>
        <mxCell id="S5shMIWd5w4mXLnRkJm3-44" value="设置序列导航的模式：&lt;div&gt;单次序列导航&lt;/div&gt;&lt;div&gt;循环序列导航&lt;/div&gt;" style="whiteSpace=wrap;html=1;rounded=0;" parent="WIyWlLk6GJQsqaUBKTNV-1" vertex="1">
          <mxGeometry x="672.5" y="-540" width="141" height="60" as="geometry" />
        </mxCell>
        <mxCell id="S5shMIWd5w4mXLnRkJm3-60" style="edgeStyle=orthogonalEdgeStyle;rounded=0;orthogonalLoop=1;jettySize=auto;html=1;exitX=0.5;exitY=1;exitDx=0;exitDy=0;entryX=1;entryY=0.5;entryDx=0;entryDy=0;" parent="WIyWlLk6GJQsqaUBKTNV-1" source="S5shMIWd5w4mXLnRkJm3-45" target="S5shMIWd5w4mXLnRkJm3-19" edge="1">
          <mxGeometry relative="1" as="geometry" />
        </mxCell>
        <mxCell id="S5shMIWd5w4mXLnRkJm3-45" value="设置循环序列导航的模式：&lt;div&gt;以起始点为第一个航点的正序循环序列导航&lt;/div&gt;&lt;div&gt;&lt;span style=&quot;background-color: initial;&quot;&gt;以起始点为第一个航点的&lt;/span&gt;&lt;span style=&quot;background-color: initial;&quot;&gt;逆序循环序列导航&lt;/span&gt;&lt;/div&gt;&lt;div&gt;以起始点为第一个航点的往返循环序列导航&lt;span style=&quot;background-color: initial;&quot;&gt;&lt;br&gt;&lt;/span&gt;&lt;/div&gt;" style="whiteSpace=wrap;html=1;rounded=0;" parent="WIyWlLk6GJQsqaUBKTNV-1" vertex="1">
          <mxGeometry x="925" y="-360" width="310" height="60" as="geometry" />
        </mxCell>
        <mxCell id="S5shMIWd5w4mXLnRkJm3-57" style="edgeStyle=orthogonalEdgeStyle;rounded=0;orthogonalLoop=1;jettySize=auto;html=1;exitX=0.5;exitY=1;exitDx=0;exitDy=0;" parent="WIyWlLk6GJQsqaUBKTNV-1" source="S5shMIWd5w4mXLnRkJm3-46" target="S5shMIWd5w4mXLnRkJm3-48" edge="1">
          <mxGeometry relative="1" as="geometry" />
        </mxCell>
        <mxCell id="S5shMIWd5w4mXLnRkJm3-46" value="单次序列导航" style="rounded=1;whiteSpace=wrap;html=1;fontSize=12;glass=0;strokeWidth=1;shadow=0;" parent="WIyWlLk6GJQsqaUBKTNV-1" vertex="1">
          <mxGeometry x="343.63" y="-450" width="120" height="40" as="geometry" />
        </mxCell>
        <mxCell id="S5shMIWd5w4mXLnRkJm3-58" style="edgeStyle=orthogonalEdgeStyle;rounded=0;orthogonalLoop=1;jettySize=auto;html=1;exitX=0.5;exitY=1;exitDx=0;exitDy=0;entryX=0.5;entryY=0;entryDx=0;entryDy=0;" parent="WIyWlLk6GJQsqaUBKTNV-1" source="S5shMIWd5w4mXLnRkJm3-47" target="S5shMIWd5w4mXLnRkJm3-45" edge="1">
          <mxGeometry relative="1" as="geometry" />
        </mxCell>
        <mxCell id="S5shMIWd5w4mXLnRkJm3-47" value="循环序列导航" style="rounded=1;whiteSpace=wrap;html=1;fontSize=12;glass=0;strokeWidth=1;shadow=0;" parent="WIyWlLk6GJQsqaUBKTNV-1" vertex="1">
          <mxGeometry x="1020" y="-450" width="120" height="40" as="geometry" />
        </mxCell>
        <mxCell id="S5shMIWd5w4mXLnRkJm3-59" style="edgeStyle=orthogonalEdgeStyle;rounded=0;orthogonalLoop=1;jettySize=auto;html=1;exitX=0.5;exitY=1;exitDx=0;exitDy=0;entryX=0;entryY=0.5;entryDx=0;entryDy=0;" parent="WIyWlLk6GJQsqaUBKTNV-1" source="S5shMIWd5w4mXLnRkJm3-48" target="S5shMIWd5w4mXLnRkJm3-19" edge="1">
          <mxGeometry relative="1" as="geometry" />
        </mxCell>
        <mxCell id="S5shMIWd5w4mXLnRkJm3-48" value="设置单次序列导航的模式：&lt;br&gt;&lt;div&gt;&lt;span style=&quot;background-color: initial;&quot;&gt;以起始点为第一个航点的&lt;/span&gt;正序单次序列导航&lt;/div&gt;&lt;div&gt;&lt;span style=&quot;background-color: initial;&quot;&gt;以起始点为第一个航点的&lt;/span&gt;逆序单次序列导航&lt;/div&gt;&lt;div&gt;以起始点为第一个航点的往返单次序列导航&lt;br&gt;&lt;/div&gt;" style="whiteSpace=wrap;html=1;rounded=0;" parent="WIyWlLk6GJQsqaUBKTNV-1" vertex="1">
          <mxGeometry x="279.88" y="-360" width="247.5" height="60" as="geometry" />
        </mxCell>
        <mxCell id="S5shMIWd5w4mXLnRkJm3-63" value="" style="edgeStyle=orthogonalEdgeStyle;rounded=0;orthogonalLoop=1;jettySize=auto;html=1;" parent="WIyWlLk6GJQsqaUBKTNV-1" source="S5shMIWd5w4mXLnRkJm3-61" target="S5shMIWd5w4mXLnRkJm3-62" edge="1">
          <mxGeometry relative="1" as="geometry" />
        </mxCell>
        <mxCell id="S5shMIWd5w4mXLnRkJm3-64" value="否" style="edgeLabel;html=1;align=center;verticalAlign=middle;resizable=0;points=[];" parent="S5shMIWd5w4mXLnRkJm3-63" vertex="1" connectable="0">
          <mxGeometry x="0.0353" y="1" relative="1" as="geometry">
            <mxPoint x="-4" y="1" as="offset" />
          </mxGeometry>
        </mxCell>
        <mxCell id="S5shMIWd5w4mXLnRkJm3-66" value="" style="edgeStyle=orthogonalEdgeStyle;rounded=0;orthogonalLoop=1;jettySize=auto;html=1;entryX=0.5;entryY=0;entryDx=0;entryDy=0;" parent="WIyWlLk6GJQsqaUBKTNV-1" source="S5shMIWd5w4mXLnRkJm3-61" target="S5shMIWd5w4mXLnRkJm3-67" edge="1">
          <mxGeometry relative="1" as="geometry">
            <mxPoint x="1080" y="130" as="targetPoint" />
          </mxGeometry>
        </mxCell>
        <mxCell id="S5shMIWd5w4mXLnRkJm3-76" value="是" style="edgeLabel;html=1;align=center;verticalAlign=middle;resizable=0;points=[];" parent="S5shMIWd5w4mXLnRkJm3-66" vertex="1" connectable="0">
          <mxGeometry x="-0.2522" relative="1" as="geometry">
            <mxPoint as="offset" />
          </mxGeometry>
        </mxCell>
        <mxCell id="S5shMIWd5w4mXLnRkJm3-61" value="是否导航失败" style="rhombus;whiteSpace=wrap;html=1;rounded=0;" parent="WIyWlLk6GJQsqaUBKTNV-1" vertex="1">
          <mxGeometry x="1010" y="-40" width="140" height="80" as="geometry" />
        </mxCell>
        <mxCell id="S5shMIWd5w4mXLnRkJm3-62" value="继续导航，直到接收到到达目标点的信息" style="whiteSpace=wrap;html=1;rounded=0;" parent="WIyWlLk6GJQsqaUBKTNV-1" vertex="1">
          <mxGeometry x="1235" y="-30" width="124" height="60" as="geometry" />
        </mxCell>
        <mxCell id="S5shMIWd5w4mXLnRkJm3-68" style="edgeStyle=orthogonalEdgeStyle;rounded=0;orthogonalLoop=1;jettySize=auto;html=1;exitX=1;exitY=0.5;exitDx=0;exitDy=0;entryX=0.5;entryY=1;entryDx=0;entryDy=0;" parent="WIyWlLk6GJQsqaUBKTNV-1" source="S5shMIWd5w4mXLnRkJm3-67" target="S5shMIWd5w4mXLnRkJm3-62" edge="1">
          <mxGeometry relative="1" as="geometry" />
        </mxCell>
        <mxCell id="S5shMIWd5w4mXLnRkJm3-69" value="导航恢复成功" style="edgeLabel;html=1;align=center;verticalAlign=middle;resizable=0;points=[];" parent="S5shMIWd5w4mXLnRkJm3-68" vertex="1" connectable="0">
          <mxGeometry x="0.1246" y="-1" relative="1" as="geometry">
            <mxPoint x="-8" y="-10" as="offset" />
          </mxGeometry>
        </mxCell>
        <mxCell id="S5shMIWd5w4mXLnRkJm3-72" style="edgeStyle=orthogonalEdgeStyle;rounded=0;orthogonalLoop=1;jettySize=auto;html=1;exitX=0;exitY=0.5;exitDx=0;exitDy=0;entryX=1;entryY=0.5;entryDx=0;entryDy=0;" parent="WIyWlLk6GJQsqaUBKTNV-1" source="S5shMIWd5w4mXLnRkJm3-67" target="S5shMIWd5w4mXLnRkJm3-33" edge="1">
          <mxGeometry relative="1" as="geometry" />
        </mxCell>
        <mxCell id="S5shMIWd5w4mXLnRkJm3-73" value="前往下一个航点" style="edgeLabel;html=1;align=center;verticalAlign=middle;resizable=0;points=[];" parent="S5shMIWd5w4mXLnRkJm3-72" vertex="1" connectable="0">
          <mxGeometry x="0.0369" y="-1" relative="1" as="geometry">
            <mxPoint as="offset" />
          </mxGeometry>
        </mxCell>
        <mxCell id="S5shMIWd5w4mXLnRkJm3-74" style="edgeStyle=orthogonalEdgeStyle;rounded=0;orthogonalLoop=1;jettySize=auto;html=1;exitX=0.5;exitY=1;exitDx=0;exitDy=0;entryX=1;entryY=0.5;entryDx=0;entryDy=0;" parent="WIyWlLk6GJQsqaUBKTNV-1" source="S5shMIWd5w4mXLnRkJm3-67" target="S5shMIWd5w4mXLnRkJm3-34" edge="1">
          <mxGeometry relative="1" as="geometry" />
        </mxCell>
        <mxCell id="S5shMIWd5w4mXLnRkJm3-75" value="导航恢复失败" style="edgeLabel;html=1;align=center;verticalAlign=middle;resizable=0;points=[];" parent="S5shMIWd5w4mXLnRkJm3-74" vertex="1" connectable="0">
          <mxGeometry x="-0.5691" relative="1" as="geometry">
            <mxPoint as="offset" />
          </mxGeometry>
        </mxCell>
        <mxCell id="S5shMIWd5w4mXLnRkJm3-67" value="尝试恢复导航&lt;div&gt;或前往下一个航点&lt;/div&gt;" style="rhombus;whiteSpace=wrap;html=1;" parent="WIyWlLk6GJQsqaUBKTNV-1" vertex="1">
          <mxGeometry x="995" y="155" width="170" height="80" as="geometry" />
        </mxCell>
        <mxCell id="S5shMIWd5w4mXLnRkJm3-92" style="edgeStyle=orthogonalEdgeStyle;rounded=0;orthogonalLoop=1;jettySize=auto;html=1;exitX=0.75;exitY=0;exitDx=0;exitDy=0;entryX=0.75;entryY=1;entryDx=0;entryDy=0;" parent="WIyWlLk6GJQsqaUBKTNV-1" source="S5shMIWd5w4mXLnRkJm3-79" target="S5shMIWd5w4mXLnRkJm3-85" edge="1">
          <mxGeometry relative="1" as="geometry" />
        </mxCell>
        <mxCell id="S5shMIWd5w4mXLnRkJm3-93" value="恢复" style="edgeLabel;html=1;align=center;verticalAlign=middle;resizable=0;points=[];" parent="S5shMIWd5w4mXLnRkJm3-92" vertex="1" connectable="0">
          <mxGeometry y="2" relative="1" as="geometry">
            <mxPoint x="-5" as="offset" />
          </mxGeometry>
        </mxCell>
        <mxCell id="S5shMIWd5w4mXLnRkJm3-97" style="edgeStyle=orthogonalEdgeStyle;rounded=0;orthogonalLoop=1;jettySize=auto;html=1;exitX=0;exitY=0.5;exitDx=0;exitDy=0;entryX=0.5;entryY=1;entryDx=0;entryDy=0;" parent="WIyWlLk6GJQsqaUBKTNV-1" source="S5shMIWd5w4mXLnRkJm3-79" target="S5shMIWd5w4mXLnRkJm3-82" edge="1">
          <mxGeometry relative="1" as="geometry" />
        </mxCell>
        <mxCell id="S5shMIWd5w4mXLnRkJm3-98" value="停止导航" style="edgeLabel;html=1;align=center;verticalAlign=middle;resizable=0;points=[];" parent="S5shMIWd5w4mXLnRkJm3-97" vertex="1" connectable="0">
          <mxGeometry x="-0.1801" y="1" relative="1" as="geometry">
            <mxPoint x="32" y="-1" as="offset" />
          </mxGeometry>
        </mxCell>
        <mxCell id="S5shMIWd5w4mXLnRkJm3-79" value="导航暂停" style="rounded=0;whiteSpace=wrap;html=1;" parent="WIyWlLk6GJQsqaUBKTNV-1" vertex="1">
          <mxGeometry x="271.63" y="1730" width="120" height="60" as="geometry" />
        </mxCell>
        <mxCell id="S5shMIWd5w4mXLnRkJm3-87" value="" style="edgeStyle=orthogonalEdgeStyle;rounded=0;orthogonalLoop=1;jettySize=auto;html=1;" parent="WIyWlLk6GJQsqaUBKTNV-1" source="S5shMIWd5w4mXLnRkJm3-80" target="S5shMIWd5w4mXLnRkJm3-86" edge="1">
          <mxGeometry relative="1" as="geometry" />
        </mxCell>
        <mxCell id="S5shMIWd5w4mXLnRkJm3-80" value="导航状态控制" style="rounded=1;whiteSpace=wrap;html=1;" parent="WIyWlLk6GJQsqaUBKTNV-1" vertex="1">
          <mxGeometry x="271.63" y="1290" width="120" height="60" as="geometry" />
        </mxCell>
        <mxCell id="S5shMIWd5w4mXLnRkJm3-99" style="edgeStyle=orthogonalEdgeStyle;rounded=0;orthogonalLoop=1;jettySize=auto;html=1;exitX=0.5;exitY=0;exitDx=0;exitDy=0;entryX=0;entryY=0.5;entryDx=0;entryDy=0;" parent="WIyWlLk6GJQsqaUBKTNV-1" source="S5shMIWd5w4mXLnRkJm3-82" target="S5shMIWd5w4mXLnRkJm3-86" edge="1">
          <mxGeometry relative="1" as="geometry" />
        </mxCell>
        <mxCell id="S5shMIWd5w4mXLnRkJm3-109" value="返回空闲状态" style="edgeLabel;html=1;align=center;verticalAlign=middle;resizable=0;points=[];" parent="S5shMIWd5w4mXLnRkJm3-99" vertex="1" connectable="0">
          <mxGeometry x="0.0731" y="-3" relative="1" as="geometry">
            <mxPoint x="21" y="-3" as="offset" />
          </mxGeometry>
        </mxCell>
        <mxCell id="S5shMIWd5w4mXLnRkJm3-82" value="导航停止" style="rounded=0;whiteSpace=wrap;html=1;" parent="WIyWlLk6GJQsqaUBKTNV-1" vertex="1">
          <mxGeometry x="15.259999999999991" y="1550" width="120" height="60" as="geometry" />
        </mxCell>
        <mxCell id="S5shMIWd5w4mXLnRkJm3-105" style="edgeStyle=orthogonalEdgeStyle;rounded=0;orthogonalLoop=1;jettySize=auto;html=1;exitX=0;exitY=0.75;exitDx=0;exitDy=0;entryX=1;entryY=0.75;entryDx=0;entryDy=0;" parent="WIyWlLk6GJQsqaUBKTNV-1" source="S5shMIWd5w4mXLnRkJm3-83" target="S5shMIWd5w4mXLnRkJm3-85" edge="1">
          <mxGeometry relative="1" as="geometry" />
        </mxCell>
        <mxCell id="S5shMIWd5w4mXLnRkJm3-106" value="恢复导航" style="edgeLabel;html=1;align=center;verticalAlign=middle;resizable=0;points=[];" parent="S5shMIWd5w4mXLnRkJm3-105" vertex="1" connectable="0">
          <mxGeometry x="0.0376" y="-1" relative="1" as="geometry">
            <mxPoint as="offset" />
          </mxGeometry>
        </mxCell>
        <mxCell id="S5shMIWd5w4mXLnRkJm3-107" style="edgeStyle=orthogonalEdgeStyle;rounded=0;orthogonalLoop=1;jettySize=auto;html=1;exitX=0.5;exitY=0;exitDx=0;exitDy=0;entryX=1;entryY=0.5;entryDx=0;entryDy=0;" parent="WIyWlLk6GJQsqaUBKTNV-1" source="S5shMIWd5w4mXLnRkJm3-83" target="S5shMIWd5w4mXLnRkJm3-86" edge="1">
          <mxGeometry relative="1" as="geometry">
            <Array as="points">
              <mxPoint x="601" y="1440" />
            </Array>
          </mxGeometry>
        </mxCell>
        <mxCell id="S5shMIWd5w4mXLnRkJm3-108" value="导航无法被恢复" style="edgeLabel;html=1;align=center;verticalAlign=middle;resizable=0;points=[];" parent="S5shMIWd5w4mXLnRkJm3-107" vertex="1" connectable="0">
          <mxGeometry x="0.3617" y="1" relative="1" as="geometry">
            <mxPoint x="6" y="-1" as="offset" />
          </mxGeometry>
        </mxCell>
        <mxCell id="S5shMIWd5w4mXLnRkJm3-83" value="导航失败" style="rounded=0;whiteSpace=wrap;html=1;" parent="WIyWlLk6GJQsqaUBKTNV-1" vertex="1">
          <mxGeometry x="541.26" y="1550" width="120" height="60" as="geometry" />
        </mxCell>
        <mxCell id="S5shMIWd5w4mXLnRkJm3-89" value="" style="edgeStyle=orthogonalEdgeStyle;rounded=0;orthogonalLoop=1;jettySize=auto;html=1;exitX=0;exitY=0.25;exitDx=0;exitDy=0;entryX=1;entryY=0.25;entryDx=0;entryDy=0;" parent="WIyWlLk6GJQsqaUBKTNV-1" source="S5shMIWd5w4mXLnRkJm3-85" target="S5shMIWd5w4mXLnRkJm3-82" edge="1">
          <mxGeometry relative="1" as="geometry" />
        </mxCell>
        <mxCell id="S5shMIWd5w4mXLnRkJm3-94" value="停止导航" style="edgeLabel;html=1;align=center;verticalAlign=middle;resizable=0;points=[];" parent="S5shMIWd5w4mXLnRkJm3-89" vertex="1" connectable="0">
          <mxGeometry x="0.0545" y="1" relative="1" as="geometry">
            <mxPoint x="-1" as="offset" />
          </mxGeometry>
        </mxCell>
        <mxCell id="S5shMIWd5w4mXLnRkJm3-90" style="edgeStyle=orthogonalEdgeStyle;rounded=0;orthogonalLoop=1;jettySize=auto;html=1;exitX=0.25;exitY=1;exitDx=0;exitDy=0;entryX=0.25;entryY=0;entryDx=0;entryDy=0;" parent="WIyWlLk6GJQsqaUBKTNV-1" source="S5shMIWd5w4mXLnRkJm3-85" target="S5shMIWd5w4mXLnRkJm3-79" edge="1">
          <mxGeometry relative="1" as="geometry" />
        </mxCell>
        <mxCell id="S5shMIWd5w4mXLnRkJm3-91" value="暂停" style="edgeLabel;html=1;align=center;verticalAlign=middle;resizable=0;points=[];" parent="S5shMIWd5w4mXLnRkJm3-90" vertex="1" connectable="0">
          <mxGeometry x="0.0641" y="-1" relative="1" as="geometry">
            <mxPoint y="-4" as="offset" />
          </mxGeometry>
        </mxCell>
        <mxCell id="S5shMIWd5w4mXLnRkJm3-100" style="edgeStyle=orthogonalEdgeStyle;rounded=0;orthogonalLoop=1;jettySize=auto;html=1;exitX=0;exitY=0.75;exitDx=0;exitDy=0;entryX=1;entryY=0.75;entryDx=0;entryDy=0;" parent="WIyWlLk6GJQsqaUBKTNV-1" source="S5shMIWd5w4mXLnRkJm3-85" target="S5shMIWd5w4mXLnRkJm3-82" edge="1">
          <mxGeometry relative="1" as="geometry" />
        </mxCell>
        <mxCell id="S5shMIWd5w4mXLnRkJm3-101" value="到达目标" style="edgeLabel;html=1;align=center;verticalAlign=middle;resizable=0;points=[];" parent="S5shMIWd5w4mXLnRkJm3-100" vertex="1" connectable="0">
          <mxGeometry x="0.1733" relative="1" as="geometry">
            <mxPoint x="7" as="offset" />
          </mxGeometry>
        </mxCell>
        <mxCell id="S5shMIWd5w4mXLnRkJm3-103" style="edgeStyle=orthogonalEdgeStyle;rounded=0;orthogonalLoop=1;jettySize=auto;html=1;exitX=1;exitY=0.25;exitDx=0;exitDy=0;entryX=0;entryY=0.25;entryDx=0;entryDy=0;" parent="WIyWlLk6GJQsqaUBKTNV-1" source="S5shMIWd5w4mXLnRkJm3-85" target="S5shMIWd5w4mXLnRkJm3-83" edge="1">
          <mxGeometry relative="1" as="geometry" />
        </mxCell>
        <mxCell id="S5shMIWd5w4mXLnRkJm3-104" value="错误" style="edgeLabel;html=1;align=center;verticalAlign=middle;resizable=0;points=[];" parent="S5shMIWd5w4mXLnRkJm3-103" vertex="1" connectable="0">
          <mxGeometry x="0.0158" y="2" relative="1" as="geometry">
            <mxPoint x="-6" as="offset" />
          </mxGeometry>
        </mxCell>
        <mxCell id="S5shMIWd5w4mXLnRkJm3-85" value="导航中" style="rounded=0;whiteSpace=wrap;html=1;" parent="WIyWlLk6GJQsqaUBKTNV-1" vertex="1">
          <mxGeometry x="271.63" y="1550" width="120" height="60" as="geometry" />
        </mxCell>
        <mxCell id="S5shMIWd5w4mXLnRkJm3-88" value="" style="edgeStyle=orthogonalEdgeStyle;rounded=0;orthogonalLoop=1;jettySize=auto;html=1;" parent="WIyWlLk6GJQsqaUBKTNV-1" source="S5shMIWd5w4mXLnRkJm3-86" target="S5shMIWd5w4mXLnRkJm3-85" edge="1">
          <mxGeometry relative="1" as="geometry" />
        </mxCell>
        <mxCell id="S5shMIWd5w4mXLnRkJm3-110" value="开始导航" style="edgeLabel;html=1;align=center;verticalAlign=middle;resizable=0;points=[];" parent="S5shMIWd5w4mXLnRkJm3-88" vertex="1" connectable="0">
          <mxGeometry x="0.075" y="2" relative="1" as="geometry">
            <mxPoint x="-2" y="-3" as="offset" />
          </mxGeometry>
        </mxCell>
        <mxCell id="S5shMIWd5w4mXLnRkJm3-86" value="空闲" style="rounded=0;whiteSpace=wrap;html=1;" parent="WIyWlLk6GJQsqaUBKTNV-1" vertex="1">
          <mxGeometry x="271.63" y="1410" width="120" height="60" as="geometry" />
        </mxCell>
        <mxCell id="S5shMIWd5w4mXLnRkJm3-122" style="edgeStyle=orthogonalEdgeStyle;rounded=0;orthogonalLoop=1;jettySize=auto;html=1;exitX=0.5;exitY=1;exitDx=0;exitDy=0;entryX=0.5;entryY=0;entryDx=0;entryDy=0;" parent="WIyWlLk6GJQsqaUBKTNV-1" source="S5shMIWd5w4mXLnRkJm3-113" target="S5shMIWd5w4mXLnRkJm3-119" edge="1">
          <mxGeometry relative="1" as="geometry">
            <mxPoint x="743.0100000000002" y="510" as="targetPoint" />
          </mxGeometry>
        </mxCell>
        <mxCell id="S5shMIWd5w4mXLnRkJm3-137" value="否" style="edgeLabel;html=1;align=center;verticalAlign=middle;resizable=0;points=[];" parent="S5shMIWd5w4mXLnRkJm3-122" vertex="1" connectable="0">
          <mxGeometry x="-0.08" y="-1" relative="1" as="geometry">
            <mxPoint as="offset" />
          </mxGeometry>
        </mxCell>
        <mxCell id="S5shMIWd5w4mXLnRkJm3-123" style="edgeStyle=orthogonalEdgeStyle;rounded=0;orthogonalLoop=1;jettySize=auto;html=1;exitX=0;exitY=0.5;exitDx=0;exitDy=0;entryX=1;entryY=0.5;entryDx=0;entryDy=0;" parent="WIyWlLk6GJQsqaUBKTNV-1" source="S5shMIWd5w4mXLnRkJm3-113" target="S5shMIWd5w4mXLnRkJm3-124" edge="1">
          <mxGeometry relative="1" as="geometry">
            <mxPoint x="560" y="370" as="targetPoint" />
          </mxGeometry>
        </mxCell>
        <mxCell id="S5shMIWd5w4mXLnRkJm3-127" value="是" style="edgeLabel;html=1;align=center;verticalAlign=middle;resizable=0;points=[];" parent="S5shMIWd5w4mXLnRkJm3-123" vertex="1" connectable="0">
          <mxGeometry x="0.0732" y="3" relative="1" as="geometry">
            <mxPoint x="7" y="-4" as="offset" />
          </mxGeometry>
        </mxCell>
        <mxCell id="S5shMIWd5w4mXLnRkJm3-113" value="是否是循环序列导航" style="rhombus;whiteSpace=wrap;html=1;" parent="WIyWlLk6GJQsqaUBKTNV-1" vertex="1">
          <mxGeometry x="666.49" y="330" width="153.01" height="80" as="geometry" />
        </mxCell>
        <mxCell id="S5shMIWd5w4mXLnRkJm3-121" style="edgeStyle=orthogonalEdgeStyle;rounded=0;orthogonalLoop=1;jettySize=auto;html=1;exitX=0.5;exitY=1;exitDx=0;exitDy=0;entryX=0.5;entryY=0;entryDx=0;entryDy=0;" parent="WIyWlLk6GJQsqaUBKTNV-1" source="S5shMIWd5w4mXLnRkJm3-119" target="S5shMIWd5w4mXLnRkJm3-34" edge="1">
          <mxGeometry relative="1" as="geometry">
            <mxPoint x="660" y="670" as="targetPoint" />
          </mxGeometry>
        </mxCell>
        <mxCell id="S5shMIWd5w4mXLnRkJm3-134" value="否" style="edgeLabel;html=1;align=center;verticalAlign=middle;resizable=0;points=[];" parent="S5shMIWd5w4mXLnRkJm3-121" vertex="1" connectable="0">
          <mxGeometry x="-0.8307" y="1" relative="1" as="geometry">
            <mxPoint x="-3" y="11" as="offset" />
          </mxGeometry>
        </mxCell>
        <mxCell id="S5shMIWd5w4mXLnRkJm3-130" value="" style="edgeStyle=orthogonalEdgeStyle;rounded=0;orthogonalLoop=1;jettySize=auto;html=1;" parent="WIyWlLk6GJQsqaUBKTNV-1" source="S5shMIWd5w4mXLnRkJm3-119" target="S5shMIWd5w4mXLnRkJm3-128" edge="1">
          <mxGeometry relative="1" as="geometry" />
        </mxCell>
        <mxCell id="S5shMIWd5w4mXLnRkJm3-133" value="是" style="edgeLabel;html=1;align=center;verticalAlign=middle;resizable=0;points=[];" parent="S5shMIWd5w4mXLnRkJm3-130" vertex="1" connectable="0">
          <mxGeometry x="-0.1005" y="1" relative="1" as="geometry">
            <mxPoint x="56" y="-1" as="offset" />
          </mxGeometry>
        </mxCell>
        <mxCell id="S5shMIWd5w4mXLnRkJm3-119" value="是否是往返单次序列导航" style="rhombus;whiteSpace=wrap;html=1;" parent="WIyWlLk6GJQsqaUBKTNV-1" vertex="1">
          <mxGeometry x="661.26" y="510" width="163.5" height="90" as="geometry" />
        </mxCell>
        <mxCell id="S5shMIWd5w4mXLnRkJm3-131" value="" style="edgeStyle=orthogonalEdgeStyle;rounded=0;orthogonalLoop=1;jettySize=auto;html=1;" parent="WIyWlLk6GJQsqaUBKTNV-1" source="S5shMIWd5w4mXLnRkJm3-124" target="S5shMIWd5w4mXLnRkJm3-128" edge="1">
          <mxGeometry relative="1" as="geometry" />
        </mxCell>
        <mxCell id="S5shMIWd5w4mXLnRkJm3-132" value="是" style="edgeLabel;html=1;align=center;verticalAlign=middle;resizable=0;points=[];" parent="S5shMIWd5w4mXLnRkJm3-131" vertex="1" connectable="0">
          <mxGeometry x="-0.0714" y="1" relative="1" as="geometry">
            <mxPoint x="-2" y="-2" as="offset" />
          </mxGeometry>
        </mxCell>
        <mxCell id="S5shMIWd5w4mXLnRkJm3-135" value="" style="edgeStyle=orthogonalEdgeStyle;rounded=0;orthogonalLoop=1;jettySize=auto;html=1;" parent="WIyWlLk6GJQsqaUBKTNV-1" source="S5shMIWd5w4mXLnRkJm3-124" target="S5shMIWd5w4mXLnRkJm3-37" edge="1">
          <mxGeometry relative="1" as="geometry" />
        </mxCell>
        <mxCell id="S5shMIWd5w4mXLnRkJm3-136" value="否" style="edgeLabel;html=1;align=center;verticalAlign=middle;resizable=0;points=[];" parent="S5shMIWd5w4mXLnRkJm3-135" vertex="1" connectable="0">
          <mxGeometry x="-0.0604" relative="1" as="geometry">
            <mxPoint x="-1" as="offset" />
          </mxGeometry>
        </mxCell>
        <mxCell id="S5shMIWd5w4mXLnRkJm3-124" value="是否是往返循环序列导航" style="rhombus;whiteSpace=wrap;html=1;" parent="WIyWlLk6GJQsqaUBKTNV-1" vertex="1">
          <mxGeometry x="348.25" y="325" width="163.5" height="90" as="geometry" />
        </mxCell>
        <mxCell id="S5shMIWd5w4mXLnRkJm3-129" style="edgeStyle=orthogonalEdgeStyle;rounded=0;orthogonalLoop=1;jettySize=auto;html=1;exitX=0.5;exitY=0;exitDx=0;exitDy=0;entryX=0;entryY=0.5;entryDx=0;entryDy=0;" parent="WIyWlLk6GJQsqaUBKTNV-1" source="S5shMIWd5w4mXLnRkJm3-128" target="S5shMIWd5w4mXLnRkJm3-24" edge="1">
          <mxGeometry relative="1" as="geometry" />
        </mxCell>
        <mxCell id="S5shMIWd5w4mXLnRkJm3-128" value="继续去往序列中的上一个航点" style="whiteSpace=wrap;html=1;" parent="WIyWlLk6GJQsqaUBKTNV-1" vertex="1">
          <mxGeometry x="126" y="340" width="104" height="60" as="geometry" />
        </mxCell>
        <mxCell id="mSAMPX0G9KFhwOb52APY-2" style="edgeStyle=orthogonalEdgeStyle;rounded=0;orthogonalLoop=1;jettySize=auto;html=1;exitX=1;exitY=0.5;exitDx=0;exitDy=0;entryX=0;entryY=0.5;entryDx=0;entryDy=0;" edge="1" parent="WIyWlLk6GJQsqaUBKTNV-1" source="mSAMPX0G9KFhwOb52APY-0" target="mSAMPX0G9KFhwOb52APY-1">
          <mxGeometry relative="1" as="geometry" />
        </mxCell>
        <mxCell id="mSAMPX0G9KFhwOb52APY-3" value="否" style="edgeLabel;html=1;align=center;verticalAlign=middle;resizable=0;points=[];" vertex="1" connectable="0" parent="mSAMPX0G9KFhwOb52APY-2">
          <mxGeometry x="-0.2243" y="1" relative="1" as="geometry">
            <mxPoint x="9" y="1" as="offset" />
          </mxGeometry>
        </mxCell>
        <mxCell id="mSAMPX0G9KFhwOb52APY-6" style="edgeStyle=orthogonalEdgeStyle;rounded=0;orthogonalLoop=1;jettySize=auto;html=1;exitX=0.5;exitY=1;exitDx=0;exitDy=0;entryX=0.5;entryY=0;entryDx=0;entryDy=0;" edge="1" parent="WIyWlLk6GJQsqaUBKTNV-1" source="mSAMPX0G9KFhwOb52APY-0" target="mSAMPX0G9KFhwOb52APY-5">
          <mxGeometry relative="1" as="geometry" />
        </mxCell>
        <mxCell id="mSAMPX0G9KFhwOb52APY-11" value="是" style="edgeLabel;html=1;align=center;verticalAlign=middle;resizable=0;points=[];" vertex="1" connectable="0" parent="mSAMPX0G9KFhwOb52APY-6">
          <mxGeometry x="-0.2326" y="1" relative="1" as="geometry">
            <mxPoint x="-1" y="22" as="offset" />
          </mxGeometry>
        </mxCell>
        <mxCell id="mSAMPX0G9KFhwOb52APY-0" value="是否导航失败" style="rhombus;whiteSpace=wrap;html=1;rounded=0;" vertex="1" parent="WIyWlLk6GJQsqaUBKTNV-1">
          <mxGeometry x="-130" y="-400" width="140" height="80" as="geometry" />
        </mxCell>
        <mxCell id="mSAMPX0G9KFhwOb52APY-1" value="继续导航，直到接收到到达目标点的信息" style="whiteSpace=wrap;html=1;rounded=0;" vertex="1" parent="WIyWlLk6GJQsqaUBKTNV-1">
          <mxGeometry x="116" y="-390" width="124" height="60" as="geometry" />
        </mxCell>
        <mxCell id="mSAMPX0G9KFhwOb52APY-7" style="edgeStyle=orthogonalEdgeStyle;rounded=0;orthogonalLoop=1;jettySize=auto;html=1;exitX=0;exitY=0.5;exitDx=0;exitDy=0;entryX=1;entryY=0.5;entryDx=0;entryDy=0;" edge="1" parent="WIyWlLk6GJQsqaUBKTNV-1" source="mSAMPX0G9KFhwOb52APY-5" target="S5shMIWd5w4mXLnRkJm3-5">
          <mxGeometry relative="1" as="geometry" />
        </mxCell>
        <mxCell id="mSAMPX0G9KFhwOb52APY-8" value="导航恢复失败" style="edgeLabel;html=1;align=center;verticalAlign=middle;resizable=0;points=[];" vertex="1" connectable="0" parent="mSAMPX0G9KFhwOb52APY-7">
          <mxGeometry x="-0.0388" y="-4" relative="1" as="geometry">
            <mxPoint x="1" y="4" as="offset" />
          </mxGeometry>
        </mxCell>
        <mxCell id="mSAMPX0G9KFhwOb52APY-9" style="edgeStyle=orthogonalEdgeStyle;rounded=0;orthogonalLoop=1;jettySize=auto;html=1;exitX=1;exitY=0.5;exitDx=0;exitDy=0;entryX=0.5;entryY=1;entryDx=0;entryDy=0;" edge="1" parent="WIyWlLk6GJQsqaUBKTNV-1" source="mSAMPX0G9KFhwOb52APY-5" target="mSAMPX0G9KFhwOb52APY-1">
          <mxGeometry relative="1" as="geometry" />
        </mxCell>
        <mxCell id="mSAMPX0G9KFhwOb52APY-10" value="导航恢复成功" style="edgeLabel;html=1;align=center;verticalAlign=middle;resizable=0;points=[];" vertex="1" connectable="0" parent="mSAMPX0G9KFhwOb52APY-9">
          <mxGeometry x="-0.4743" y="1" relative="1" as="geometry">
            <mxPoint x="-18" y="1" as="offset" />
          </mxGeometry>
        </mxCell>
        <mxCell id="mSAMPX0G9KFhwOb52APY-5" value="尝试恢复导航" style="rhombus;whiteSpace=wrap;html=1;" vertex="1" parent="WIyWlLk6GJQsqaUBKTNV-1">
          <mxGeometry x="-145" y="-170" width="170" height="80" as="geometry" />
        </mxCell>
      </root>
    </mxGraphModel>
  </diagram>
</mxfile>
